<?xml version="1.0" encoding="utf-8"?>
<!-- Generator: Adobe Illustrator 25.4.1, SVG Export Plug-In . SVG Version: 6.00 Build 0)  -->
<svg version="1.1" xmlns="http://www.w3.org/2000/svg" xmlns:xlink="http://www.w3.org/1999/xlink" x="0px" y="0px"
	 viewBox="0 0 3000 2000" style="enable-background:new 0 0 3000 2000;" xml:space="preserve">
<style type="text/css">
	.st0{fill:#FFFFFF;stroke:#000000;stroke-width:3;}
	.st1{fill:none;}
	.st2{fill:#E95197;}
	.st3{font-family:'BlackOpsOne-Regular';}
	.st4{font-size:28.1296px;}
	.st5{letter-spacing:6;}
	.st6{letter-spacing:1;}
	.st7{letter-spacing:2;}
	.st8{fill:#69B430;}
	.st9{font-size:19.2466px;}
	.st10{fill:#010202;}
</style>
<g id="Ebene_1">
	<rect width="3000" height="2000"/>
	<g>
		<path class="st0" d="M394.7,780.1l0.1-134.1l238.3,0.1l134,134.2l-0.1,135.1l-223.7-0.1l0.1-135.1L394.7,780.1z M394.5,1317.5
			l0.1-134.1l148.8,0.1l0-98.2l223.7,0.1l0,98.2l-134.2,134L394.5,1317.5z"/>
		<path class="st0" d="M1201.3,775.2l0.1-134.1l238.3,0.1l134,134.2l-0.1,135.1l-223.7-0.1l0.1-135.1L1201.3,775.2z M1201.1,1312.6
			l0.1-134.1l148.8,0.1l0-98.2l223.7,0.1l0,98.2l-134.2,134L1201.1,1312.6z"/>
		<path class="st0" d="M1648.2,641.3l582.9,0.3l-0.1,146.2l-582.9-0.3L1648.2,641.3z M1823.2,822.6l232.8,0.1l-0.2,490.3l-232.8-0.1
			L1823.2,822.6z"/>
		<path class="st0" d="M2316.7,641.7l223.7,0.1l-0.1,300.1l206.5,0.1l-0.1,132.1l-206.5-0.1l-0.1,239.4l-223.7-0.1L2316.7,641.7z"/>
	</g>
	<polygon class="st1" points="364.9,646 364.6,1324.4 270.1,1324.4 127.3,1188.8 127.5,781.3 270.4,645.9 	"/>
	<text transform="matrix(1 4.900000e-04 -4.900000e-04 1 268.2433 666.127)"><tspan x="0" y="0" class="st2 st3 st4 st5">010</tspan><tspan x="76.1" y="0" class="st2 st3 st4">0</tspan><tspan x="-35.6" y="33.8" class="st2 st3 st4">001101</tspan><tspan x="76.1" y="33.8" class="st2 st3 st4">0</tspan><tspan x="-71.2" y="67.5" class="st2 st3 st4">00011010</tspan><tspan x="80.6" y="67.5" class="st2 st3 st4">1</tspan><tspan x="-106.8" y="101.3" class="st2 st3 st4 st6">010001000</tspan><tspan x="80.6" y="101.3" class="st2 st3 st4">1</tspan><tspan x="-140.8" y="135" class="st2 st3 st4">100111101101</tspan><tspan x="76.1" y="135" class="st2 st3 st4">0</tspan><tspan x="-140.8" y="168.8" class="st2 st3 st4">001010111011</tspan><tspan x="76.1" y="168.8" class="st2 st3 st4">0</tspan><tspan x="-140.8" y="202.5" class="st2 st3 st4">011001010111</tspan><tspan x="76.1" y="202.5" class="st2 st3 st4">0</tspan><tspan x="-140.8" y="236.3" class="st2 st3 st4">010011110010</tspan><tspan x="80.6" y="236.3" class="st2 st3 st4">1</tspan><tspan x="-140.8" y="270" class="st2 st3 st4 st6">101111011011</tspan><tspan x="80.6" y="270" class="st2 st3 st4">1</tspan><tspan x="-140.8" y="303.8" class="st2 st3 st4 st6">00110010101</tspan><tspan x="76.1" y="303.8" class="st2 st3 st4">0</tspan><tspan x="-140.8" y="337.6" class="st2 st3 st4">111110110100</tspan><tspan x="80.6" y="337.6" class="st2 st3 st4">1</tspan><tspan x="-140.8" y="371.3" class="st2 st3 st4">011100110101</tspan><tspan x="80.6" y="371.3" class="st2 st3 st4">1</tspan><tspan x="-140.8" y="405.1" class="st2 st3 st4">111010000110</tspan><tspan x="80.6" y="405.1" class="st2 st3 st4">1</tspan><tspan x="-140.8" y="438.8" class="st2 st3 st4 st6">101111011011</tspan><tspan x="80.6" y="438.8" class="st2 st3 st4">1</tspan><tspan x="-140.8" y="472.6" class="st2 st3 st4">001101110011</tspan><tspan x="76.1" y="472.6" class="st2 st3 st4">0</tspan><tspan x="-140.8" y="506.3" class="st2 st3 st4 st6">01010110001</tspan><tspan x="80.6" y="506.3" class="st2 st3 st4">1</tspan><tspan x="-122.5" y="540.1" class="st2 st3 st4 st7">0111010001</tspan><tspan x="80.6" y="540.1" class="st2 st3 st4">1</tspan><tspan x="-86.9" y="573.8" class="st2 st3 st4 st7">00101011</tspan><tspan x="76.1" y="573.8" class="st2 st3 st4">0</tspan><tspan x="-51.3" y="607.6" class="st2 st3 st4">0100011</tspan><tspan x="80.6" y="607.6" class="st2 st3 st4">1</tspan><tspan x="28" y="641.4" class="st2 st3 st4">1101</tspan></text>
	<polygon class="st1" points="2572.8,641.8 2917.5,642 2917.4,864.6 2691.4,864.5 2691.4,775.9 2572.8,775.9 	"/>
	<text transform="matrix(1 4.900000e-04 -4.900000e-04 1 2572.7837 655.6214)"><tspan x="0" y="0" class="st8 st3 st9">0100001101000011010101000</tspan><tspan x="333.7" y="0" class="st8 st3 st9">1</tspan><tspan x="0" y="23.1" class="st8 st3 st9">00011001111011010001010111</tspan><tspan x="330.6" y="23.1" class="st8 st3 st9">0</tspan><tspan x="0" y="46.2" class="st8 st3 st9">11001100101011100100111100</tspan><tspan x="333.7" y="46.2" class="st8 st3 st9">1</tspan><tspan x="0" y="69.3" class="st8 st3 st9">011011110110111001100101010</tspan><tspan x="333.7" y="69.3" class="st8 st3 st9">1</tspan><tspan x="0" y="92.4" class="st8 st3 st9">111101101001011100110101111</tspan><tspan x="333.7" y="92.4" class="st8 st3 st9">1</tspan><tspan x="0" y="115.5" class="st8 st3 st9">0100001101101111011011100110</tspan><tspan x="118.6" y="138.6" class="st8 st3 st9">11100110010101100</tspan><tspan x="330.6" y="138.6" class="st8 st3 st9">0</tspan><tspan x="118.6" y="161.7" class="st8 st3 st9">11011101000110010</tspan><tspan x="333.7" y="161.7" class="st8 st3 st9">1   </tspan><tspan x="118.6" y="184.8" class="st10 st3 st9">...</tspan><tspan x="140.7" y="184.8" class="st8 st3 st9">011001000111110</tspan><tspan x="333.7" y="184.8" class="st8 st3 st9">1</tspan></text>
	<polygon class="st1" points="1171.3,646.4 1170.9,1324.8 1076.4,1324.8 933.6,1189.2 933.8,781.7 1076.7,646.3 	"/>
	<text transform="matrix(1 4.900000e-04 -4.900000e-04 1 1074.546 666.5215)"><tspan x="0" y="0" class="st8 st3 st4 st5">010</tspan><tspan x="76.1" y="0" class="st8 st3 st4">0</tspan><tspan x="-35.6" y="33.8" class="st8 st3 st4">001101</tspan><tspan x="76.1" y="33.8" class="st8 st3 st4">0</tspan><tspan x="-71.2" y="67.5" class="st8 st3 st4">00011010</tspan><tspan x="80.6" y="67.5" class="st8 st3 st4">1</tspan><tspan x="-106.8" y="101.3" class="st8 st3 st4 st6">010001000</tspan><tspan x="80.6" y="101.3" class="st8 st3 st4">1</tspan><tspan x="-140.8" y="135" class="st8 st3 st4">100111101101</tspan><tspan x="76.1" y="135" class="st8 st3 st4">0</tspan><tspan x="-140.8" y="168.8" class="st8 st3 st4">001010111011</tspan><tspan x="76.1" y="168.8" class="st8 st3 st4">0</tspan><tspan x="-140.8" y="202.5" class="st8 st3 st4">011001010111</tspan><tspan x="76.1" y="202.5" class="st8 st3 st4">0</tspan><tspan x="-140.8" y="236.3" class="st8 st3 st4">010011110010</tspan><tspan x="80.6" y="236.3" class="st8 st3 st4">1</tspan><tspan x="-140.8" y="270" class="st8 st3 st4 st6">101111011011</tspan><tspan x="80.6" y="270" class="st8 st3 st4">1</tspan><tspan x="-140.8" y="303.8" class="st8 st3 st4 st6">00110010101</tspan><tspan x="76.1" y="303.8" class="st8 st3 st4">0</tspan><tspan x="-140.8" y="337.6" class="st8 st3 st4">111110110100</tspan><tspan x="80.6" y="337.6" class="st8 st3 st4">1</tspan><tspan x="-140.8" y="371.3" class="st8 st3 st4">011100110101</tspan><tspan x="80.6" y="371.3" class="st8 st3 st4">1</tspan><tspan x="-140.8" y="405.1" class="st8 st3 st4">111010000110</tspan><tspan x="80.6" y="405.1" class="st8 st3 st4">1</tspan><tspan x="-140.8" y="438.8" class="st8 st3 st4 st6">101111011011</tspan><tspan x="80.6" y="438.8" class="st8 st3 st4">1</tspan><tspan x="-140.8" y="472.6" class="st8 st3 st4">001101110011</tspan><tspan x="76.1" y="472.6" class="st8 st3 st4">0</tspan><tspan x="-140.8" y="506.3" class="st8 st3 st4 st6">01010110001</tspan><tspan x="80.6" y="506.3" class="st8 st3 st4">1</tspan><tspan x="-122.5" y="540.1" class="st8 st3 st4 st7">0111010001</tspan><tspan x="80.6" y="540.1" class="st8 st3 st4">1</tspan><tspan x="-86.9" y="573.8" class="st8 st3 st4 st7">00101011</tspan><tspan x="76.1" y="573.8" class="st8 st3 st4">0</tspan><tspan x="-51.3" y="607.6" class="st8 st3 st4">0100011</tspan><tspan x="80.6" y="607.6" class="st8 st3 st4">1</tspan><tspan x="28" y="641.4" class="st8 st3 st4">1101</tspan></text>
</g>
<g id="Ebene_2">
</g>
</svg>
